<svg width="199" height="35" viewBox="0 0 199 35" fill="none" xmlns="http://www.w3.org/2000/svg">
<path d="M199 15.0588H194.143V8H186.857V15.0588H182L190.5 23.2941L199 15.0588ZM182 25.6471V28H199V25.6471H182Z" fill="#93A761"/>
<path d="M17.3279 8.056V19.84H19.8479V8.056H17.3279ZM5.51988 20.872V29.728H19.8479V20.872H17.3519V23.248H7.99188V20.872H5.51988ZM7.99188 25.216H17.3519V27.712H7.99188V25.216ZM8.01588 9.04C4.65588 9.04 2.18388 11.128 2.18388 14.152C2.18388 17.152 4.65588 19.264 8.01588 19.264C11.3759 19.264 13.8239 17.152 13.8239 14.152C13.8239 11.128 11.3759 9.04 8.01588 9.04ZM8.01588 11.128C9.98388 11.128 11.3759 12.328 11.3759 14.152C11.3759 15.976 9.98388 17.176 8.01588 17.176C6.04788 17.176 4.63188 15.976 4.63188 14.152C4.63188 12.328 6.04788 11.128 8.01588 11.128ZM40.198 11.08V13.144H43.99V11.08H40.198ZM40.198 15.784V17.848H43.99V15.784H40.198ZM29.95 9.304C26.614 9.304 24.142 11.464 24.142 14.56C24.142 17.608 26.614 19.768 29.95 19.768C33.286 19.768 35.782 17.608 35.782 14.56C35.782 11.464 33.286 9.304 29.95 9.304ZM29.95 11.416C31.894 11.416 33.334 12.664 33.334 14.56C33.334 16.456 31.894 17.656 29.95 17.656C28.006 17.656 26.59 16.456 26.59 14.56C26.59 12.664 28.006 11.416 29.95 11.416ZM38.446 8.056V20.968H40.966V8.056H38.446ZM33.91 21.544C29.398 21.544 26.59 23.128 26.59 25.768C26.59 28.408 29.398 29.968 33.91 29.968C38.398 29.968 41.206 28.408 41.206 25.768C41.206 23.128 38.398 21.544 33.91 21.544ZM33.91 23.56C36.958 23.56 38.71 24.328 38.71 25.768C38.71 27.208 36.958 27.976 33.91 27.976C30.862 27.976 29.086 27.208 29.086 25.768C29.086 24.328 30.862 23.56 33.91 23.56ZM59.7948 14.008V16.024H64.4748V14.008H59.7948ZM59.6508 19.504V21.52H64.4028V19.504H59.6508ZM67.6428 8.056V29.992H70.0668V8.056H67.6428ZM63.2028 8.584V28.936H65.5548V8.584H63.2028ZM58.2828 10.744V11.224C58.2828 16.456 56.2188 20.512 51.1548 23.56L52.5948 25.336C58.5948 21.784 60.7068 16.696 60.7068 10.744H58.2828ZM52.2588 10.744V12.784H59.1948V10.744H52.2588ZM89.7449 11.176V13.264H93.5369V11.176H89.7449ZM89.7449 15.904V17.968H93.5369V15.904H89.7449ZM87.9929 8.056V21.04H90.5129V8.056H87.9929ZM76.0889 22.024V24.04H87.9929V29.992H90.5129V22.024H76.0889ZM79.4969 9.304C76.1609 9.304 73.6889 11.488 73.6889 14.584C73.6889 17.68 76.1609 19.84 79.4969 19.84C82.8329 19.84 85.3289 17.68 85.3289 14.584C85.3289 11.488 82.8329 9.304 79.4969 9.304ZM79.4969 11.44C81.4409 11.44 82.8809 12.664 82.8809 14.584C82.8809 16.504 81.4409 17.728 79.4969 17.728C77.5529 17.728 76.1369 16.504 76.1369 14.584C76.1369 12.664 77.5529 11.44 79.4969 11.44ZM106.471 15.232V17.272H112.423V15.232H106.471ZM100.879 9.856V13.456C100.879 17.56 98.767 21.784 95.311 23.44L96.895 25.456C100.663 23.512 102.919 18.616 102.919 13.456V9.856H100.879ZM101.383 9.856V13.456C101.383 18.544 103.567 23.176 107.359 25.072L108.871 23.056C105.487 21.496 103.399 17.512 103.399 13.456V9.856H101.383ZM111.175 8.032V30.016H113.671V8.032H111.175ZM137.42 8.032V30.016H139.94V8.032H137.42ZM139.364 16.456V18.544H143.348V16.456H139.364ZM123.836 22.552V24.64H125.612C129.596 24.64 132.524 24.52 135.884 23.92L135.62 21.808C132.38 22.408 129.5 22.552 125.612 22.552H123.836ZM123.836 10.12V23.512H126.332V12.16H134.036V10.12H123.836ZM145.002 18.976V20.992H164.874V18.976H145.002ZM153.834 20.272V25.144H156.378V20.272H153.834ZM147.45 27.496V29.56H162.69V27.496H147.45ZM147.45 23.08V28.048H149.97V23.08H147.45ZM154.914 8.536C150.234 8.536 147.138 10.264 147.138 13.024C147.138 15.76 150.234 17.488 154.914 17.488C159.594 17.488 162.69 15.76 162.69 13.024C162.69 10.264 159.594 8.536 154.914 8.536ZM154.914 10.552C158.01 10.552 160.002 11.464 160.002 13.024C160.002 14.56 158.01 15.448 154.914 15.448C151.842 15.448 149.826 14.56 149.826 13.024C149.826 11.464 151.842 10.552 154.914 10.552Z" fill="#787878"/>
</svg>
