<svg width="173" height="43" viewBox="0 0 173 43" fill="none" xmlns="http://www.w3.org/2000/svg">
<path d="M54.0553 10.176V21.816H56.0713V10.176H54.0553ZM42.0793 22.896V31.584H56.0713V22.896H54.1033V25.536H44.0473V22.896H42.0793ZM44.0473 27.12H54.1033V29.976H44.0473V27.12ZM44.4313 11.208C41.1433 11.208 38.7673 13.248 38.7673 16.2C38.7673 19.176 41.1433 21.216 44.4313 21.216C47.7193 21.216 50.0713 19.176 50.0713 16.2C50.0713 13.248 47.7193 11.208 44.4313 11.208ZM44.4313 12.864C46.5913 12.864 48.1513 14.232 48.1513 16.2C48.1513 18.168 46.5913 19.536 44.4313 19.536C42.2713 19.536 40.7113 18.168 40.7113 16.2C40.7113 14.232 42.2713 12.864 44.4313 12.864ZM76.5895 13.416V15.072H80.3575V13.416H76.5895ZM76.5895 18.024V19.68H80.3575V18.024H76.5895ZM66.4135 11.448C63.1495 11.448 60.7495 13.56 60.7495 16.584C60.7495 19.584 63.1495 21.672 66.4135 21.672C69.6775 21.672 72.0775 19.584 72.0775 16.584C72.0775 13.56 69.6775 11.448 66.4135 11.448ZM66.4135 13.128C68.5735 13.128 70.1335 14.544 70.1335 16.584C70.1335 18.624 68.5735 20.016 66.4135 20.016C64.2535 20.016 62.6935 18.624 62.6935 16.584C62.6935 14.544 64.2535 13.128 66.4135 13.128ZM75.1975 10.176V23.016H77.1895V10.176H75.1975ZM70.2775 23.712C65.8615 23.712 63.1495 25.224 63.1495 27.768C63.1495 30.336 65.8615 31.824 70.2775 31.824C74.6935 31.824 77.4055 30.336 77.4055 27.768C77.4055 25.224 74.6935 23.712 70.2775 23.712ZM70.2775 25.32C73.4935 25.32 75.4615 26.208 75.4615 27.768C75.4615 29.328 73.4935 30.24 70.2775 30.24C67.0615 30.24 65.0935 29.328 65.0935 27.768C65.0935 26.208 67.0615 25.32 70.2775 25.32ZM94.0116 15V16.632H99.6036V15H94.0116ZM87.9156 12.024V13.464C87.9156 16.248 85.6836 18.984 82.5156 20.064L83.4756 21.624C87.0996 20.4 89.5476 17.112 89.5476 13.464V12.024H87.9156ZM88.2996 12.024V13.488C88.2996 16.944 90.6516 19.968 94.2036 21.12L95.1636 19.56C92.0436 18.576 89.9316 16.08 89.9316 13.488V12.024H88.2996ZM83.1156 11.28V12.912H94.7076V11.28H83.1156ZM98.2836 10.176V21.36H100.276V10.176H98.2836ZM86.3076 22.464V24.048H98.3076V26.184H86.3556V31.032H88.2996V27.672H100.276V22.464H86.3076ZM86.3556 30.048V31.632H101.068V30.048H86.3556ZM109.802 15.336V17.184C109.802 20.928 107.498 24.624 104.306 26.16L105.434 27.696C108.866 25.992 111.362 21.768 111.362 17.184V15.336H109.802ZM110.186 15.336V17.184C110.186 21.504 112.538 25.608 115.922 27.288L117.026 25.752C113.93 24.216 111.746 20.688 111.746 17.184V15.336H110.186ZM104.906 13.944V15.552H116.546V13.944H104.906ZM109.778 10.56V14.832H111.746V10.56H109.778ZM119.186 10.176V31.872H121.202V10.176H119.186ZM120.722 19.08V20.736H124.754V19.08H120.722Z" fill="black"/>
<path d="M142 26.6761L147.671 21.6153L142 16.5546L143.746 14.9999L151.175 21.6153L143.746 28.2307L142 26.6761Z" fill="#93A761"/>
</svg>
