<svg width="68" height="62" viewBox="0 0 68 62" fill="none" xmlns="http://www.w3.org/2000/svg">
<path d="M14.704 61.584H54.448C62.944 61.584 67.336 57.336 67.336 51.504C67.336 48.552 66.256 45.528 64.456 42.36L44.584 7.944C41.56 2.688 38.032 0.167998 34 0.167998C29.608 0.167998 26.008 3.048 22.624 8.952L2.896 43.296C1.24 46.32 0.376 48.912 0.376 51.288C0.376 57.552 5.704 61.584 14.704 61.584ZM13.84 56.328C8.8 56.328 5.92 54.24 5.92 50.64C5.92 49.272 6.28 47.76 7.144 46.176L27.664 10.536C29.536 7.368 31.768 5.568 34 5.568C36.016 5.568 38.176 6.936 39.76 9.744L60.424 45.528C61.504 47.4 62.008 49.2 62.008 51.144C62.008 54.096 59.344 56.328 54.952 56.328H13.84ZM34 51.936C36.736 51.936 38.968 49.704 38.968 46.68C38.968 43.656 36.736 41.496 34 41.496C31.192 41.496 29.032 43.656 29.032 46.68C29.032 49.704 31.192 51.936 34 51.936ZM31.912 37.464H36.16L37.168 21.264L37.384 15H30.616L30.832 21.264L31.912 37.464Z" fill="#93A761"/>
</svg>
