<svg width="16" height="18" viewBox="0 0 16 18" fill="none" xmlns="http://www.w3.org/2000/svg">
<path d="M1.26562 3.6543H13.9282V13.2909C13.9282 15.5 12.1373 17.2909 9.92819 17.2909H5.26562C3.05648 17.2909 1.26562 15.5 1.26562 13.2909V3.6543Z" fill="#787878"/>
<path fill-rule="evenodd" clip-rule="evenodd" d="M4.26953 6.53857C4.26953 6.26243 4.04567 6.03857 3.76953 6.03857C3.49339 6.03857 3.26953 6.26243 3.26953 6.53857V14.305C3.26953 14.5811 3.49339 14.805 3.76953 14.805C4.04567 14.805 4.26953 14.5811 4.26953 14.305V6.53857ZM7.46121 6.03857C7.73735 6.03857 7.96121 6.26243 7.96121 6.53857V14.305C7.96121 14.5811 7.73735 14.805 7.46121 14.805C7.18506 14.805 6.96121 14.5811 6.96121 14.305V6.53857C6.96121 6.26243 7.18506 6.03857 7.46121 6.03857ZM11.1541 6.03857C11.4302 6.03857 11.6541 6.26243 11.6541 6.53857V14.305C11.6541 14.5811 11.4302 14.805 11.1541 14.805C10.8779 14.805 10.6541 14.5811 10.6541 14.305V6.53857C10.6541 6.26243 10.8779 6.03857 11.1541 6.03857Z" fill="white"/>
<path d="M5.68045 1.46567C5.98244 1.46567 6.22922 1.25016 6.40124 1.01507C6.62898 0.703836 7.00881 0.5 7.4389 0.5C7.86899 0.5 8.24881 0.703836 8.47656 1.01507C8.64858 1.25016 8.89536 1.46567 9.19735 1.46567H13.5379C14.176 1.46567 14.6932 1.95555 14.6932 2.55986C14.6932 3.16416 14.176 3.65404 13.5379 3.65404H1.65526C1.01723 3.65404 0.5 3.16416 0.5 2.55986C0.5 1.95555 1.01723 1.46567 1.65526 1.46567H5.68045Z" fill="#787878" stroke="#787878" stroke-linecap="round" stroke-linejoin="round"/>
</svg>
