<svg width="105" height="44" viewBox="0 0 105 44" fill="none" xmlns="http://www.w3.org/2000/svg">
<g filter="url(#filter0_d_1436_54)">
<rect width="105" height="44" rx="15" fill="#93A761"/>
</g>
<path d="M50.9174 21.126C47.6414 20.658 45.1934 18.624 45.1934 16.518V15.654H43.2314V16.518C43.2314 18.66 40.8194 20.658 37.5074 21.126L38.2274 22.62C40.9274 22.188 43.1774 20.838 44.2214 18.948C45.2834 20.82 47.4974 22.188 50.1974 22.62L50.9174 21.126ZM51.5474 24.15H36.8594V25.662H43.2314V31.404H45.0854V25.662H51.5474V24.15ZM62.148 19.218V20.73H65.028V24.816H66.882V15.132H65.028V19.218H62.148ZM63.084 22.836C60.654 21.99 59.268 19.974 59.268 17.94V17.724H62.652V16.23H53.958V17.724H57.396V17.958C57.396 20.19 55.938 22.35 53.418 23.25L54.372 24.726C56.298 24.042 57.666 22.602 58.386 20.82C59.07 22.386 60.366 23.664 62.166 24.294L63.084 22.836ZM61.482 29.964C59.16 29.964 57.846 29.388 57.846 28.326C57.846 27.264 59.16 26.688 61.482 26.688C63.768 26.688 65.1 27.264 65.1 28.326C65.1 29.388 63.768 29.964 61.482 29.964ZM61.482 25.248C58.08 25.248 55.992 26.4 55.992 28.326C55.992 30.27 58.08 31.404 61.482 31.404C64.866 31.404 66.954 30.27 66.954 28.326C66.954 26.4 64.866 25.248 61.482 25.248Z" fill="white"/>
<defs>
<filter id="filter0_d_1436_54" x="-8" y="-8" width="121" height="60" filterUnits="userSpaceOnUse" color-interpolation-filters="sRGB">
<feFlood flood-opacity="0" result="BackgroundImageFix"/>
<feColorMatrix in="SourceAlpha" type="matrix" values="0 0 0 0 0 0 0 0 0 0 0 0 0 0 0 0 0 0 127 0" result="hardAlpha"/>
<feOffset/>
<feGaussianBlur stdDeviation="4"/>
<feComposite in2="hardAlpha" operator="out"/>
<feColorMatrix type="matrix" values="0 0 0 0 0 0 0 0 0 0 0 0 0 0 0 0 0 0 0.2 0"/>
<feBlend mode="normal" in2="BackgroundImageFix" result="effect1_dropShadow_1436_54"/>
<feBlend mode="normal" in="SourceGraphic" in2="effect1_dropShadow_1436_54" result="shape"/>
</filter>
</defs>
</svg>
