<svg width="21" height="21" viewBox="0 0 21 21" fill="none" xmlns="http://www.w3.org/2000/svg">
<path d="M14.4375 7.875C16.6121 7.875 18.375 6.11212 18.375 3.9375C18.375 1.76288 16.6121 0 14.4375 0C12.2629 0 10.5 1.76288 10.5 3.9375C10.5 4.23111 10.5321 4.51722 10.5931 4.7925L6.39004 7.4194C5.71724 6.88305 4.86481 6.5625 3.9375 6.5625C1.76288 6.5625 0 8.32538 0 10.5C0 12.6746 1.76288 14.4375 3.9375 14.4375C4.86481 14.4375 5.71724 14.1169 6.39004 13.5806L10.5931 16.2075C10.5321 16.4828 10.5 16.7689 10.5 17.0625C10.5 19.2371 12.2629 21 14.4375 21C16.6121 21 18.375 19.2371 18.375 17.0625C18.375 14.8879 16.6121 13.125 14.4375 13.125C13.5102 13.125 12.6578 13.4456 11.985 13.9819L7.78191 11.355C7.84286 11.0797 7.875 10.7936 7.875 10.5C7.875 10.2064 7.84286 9.92028 7.78191 9.645L11.985 7.0181C12.6578 7.55445 13.5102 7.875 14.4375 7.875Z" fill="#787878"/>
</svg>
