<svg width="105" height="44" viewBox="0 0 105 44" fill="none" xmlns="http://www.w3.org/2000/svg">
<g filter="url(#filter0_d_1198_217)">
<rect width="105" height="44" rx="10" fill="white"/>
<rect x="0.25" y="0.25" width="104.5" height="43.5" rx="9.75" stroke="#93A761" stroke-width="0.5"/>
</g>
<path d="M29.3541 16.59V27.462H37.0761V16.59H29.3541ZM35.2401 18.084V25.95H31.2081V18.084H35.2401ZM40.1361 15.024V31.512H42.0261V15.024H40.1361ZM51.5107 15.312V15.942C51.5107 17.886 49.1167 19.74 45.8407 20.154L46.5427 21.648C50.2867 21.09 53.1307 18.858 53.1307 15.942V15.312H51.5107ZM51.8167 15.312V15.942C51.8167 18.822 54.6787 21.09 58.4047 21.648L59.0887 20.154C55.8487 19.74 53.4367 17.868 53.4367 15.942V15.312H51.8167ZM45.0307 22.764V24.276H59.8987V22.764H45.0307ZM52.4467 25.59C48.9007 25.59 46.7767 26.652 46.7767 28.542C46.7767 30.432 48.9007 31.494 52.4467 31.494C55.9747 31.494 58.1167 30.432 58.1167 28.542C58.1167 26.652 55.9747 25.59 52.4467 25.59ZM52.4467 27.03C54.8587 27.03 56.2087 27.57 56.2087 28.542C56.2087 29.532 54.8587 30.054 52.4467 30.054C50.0347 30.054 48.6847 29.532 48.6847 28.542C48.6847 27.57 50.0347 27.03 52.4467 27.03ZM73.2713 15.06V26.976H75.1613V15.06H73.2713ZM64.4153 29.64V31.17H75.6293V29.64H64.4153ZM64.4153 25.77V30.216H66.3053V25.77H64.4153ZM66.2873 16.158C63.8033 16.158 61.9133 17.85 61.9133 20.262C61.9133 22.638 63.8033 24.366 66.2873 24.366C68.7713 24.366 70.6433 22.638 70.6433 20.262C70.6433 17.85 68.7713 16.158 66.2873 16.158ZM66.2873 17.778C67.7273 17.778 68.8073 18.75 68.8073 20.262C68.8073 21.738 67.7273 22.71 66.2873 22.71C64.8473 22.71 63.7493 21.738 63.7493 20.262C63.7493 18.75 64.8473 17.778 66.2873 17.778Z" fill="#787878"/>
<defs>
<filter id="filter0_d_1198_217" x="-8" y="-8" width="121" height="60" filterUnits="userSpaceOnUse" color-interpolation-filters="sRGB">
<feFlood flood-opacity="0" result="BackgroundImageFix"/>
<feColorMatrix in="SourceAlpha" type="matrix" values="0 0 0 0 0 0 0 0 0 0 0 0 0 0 0 0 0 0 127 0" result="hardAlpha"/>
<feOffset/>
<feGaussianBlur stdDeviation="4"/>
<feComposite in2="hardAlpha" operator="out"/>
<feColorMatrix type="matrix" values="0 0 0 0 0 0 0 0 0 0 0 0 0 0 0 0 0 0 0.2 0"/>
<feBlend mode="normal" in2="BackgroundImageFix" result="effect1_dropShadow_1198_217"/>
<feBlend mode="normal" in="SourceGraphic" in2="effect1_dropShadow_1198_217" result="shape"/>
</filter>
</defs>
</svg>
