<svg width="27" height="27" viewBox="0 0 27 27" fill="none" xmlns="http://www.w3.org/2000/svg">
<path fill-rule="evenodd" clip-rule="evenodd" d="M0 13.5L5.19657 7.26412C7.25015 4.79982 10.2922 3.375 13.5 3.375C16.7078 3.375 19.7499 4.79983 21.8034 7.26412L27 13.5L21.8034 19.7359C19.7499 22.2002 16.7078 23.625 13.5 23.625C10.2922 23.625 7.25015 22.2002 5.19657 19.7359L0 13.5ZM13.5 18.5625C16.2959 18.5625 18.5625 16.2959 18.5625 13.5C18.5625 10.7041 16.2959 8.4375 13.5 8.4375C10.7041 8.4375 8.4375 10.7041 8.4375 13.5C8.4375 16.2959 10.7041 18.5625 13.5 18.5625Z" fill="#787878"/>
</svg>
