<svg width="27" height="27" viewBox="0 0 27 27" fill="none" xmlns="http://www.w3.org/2000/svg">
<path fill-rule="evenodd" clip-rule="evenodd" d="M27 27H21.9375L18.287 22.5071C16.8157 23.2339 15.1806 23.625 13.5 23.625C10.2922 23.625 7.25015 22.2002 5.19657 19.7359L0 13.5L5.19657 7.26412C5.31544 7.12147 5.43762 6.98231 5.56295 6.84671L0 0H5.0625L27 27ZM14.9184 18.3611L9.03241 11.1168C8.65275 11.827 8.4375 12.6384 8.4375 13.5C8.4375 16.2959 10.7041 18.5625 13.5 18.5625C13.9924 18.5625 14.4683 18.4922 14.9184 18.3611Z" fill="#787878"/>
<path d="M27 13.5L24.0095 17.0886L12.8816 3.39268C13.0869 3.38093 13.2931 3.375 13.5 3.375C16.7078 3.375 19.7499 4.79983 21.8034 7.26412L27 13.5Z" fill="#787878"/>
</svg>
