<svg width="88" height="66" viewBox="0 0 88 66" fill="none" xmlns="http://www.w3.org/2000/svg">
<circle cx="62" cy="14" r="12.5" stroke="#93A761" stroke-width="3" stroke-linejoin="round"/>
<path d="M85 64.5C85.8284 64.5 86.5 63.8284 86.5 63V55C86.5 43.1259 76.8741 33.5 65 33.5H59C47.1259 33.5 37.5 43.1259 37.5 55V63C37.5 63.8284 38.1716 64.5 39 64.5H85Z" stroke="#93A761" stroke-width="3" stroke-linejoin="round"/>
<circle cx="26" cy="14" r="12.5" fill="white" stroke="#93A761" stroke-width="3" stroke-linejoin="round"/>
<path d="M49 64.5C49.8284 64.5 50.5 63.8284 50.5 63V55C50.5 43.1259 40.8741 33.5 29 33.5H23C11.1259 33.5 1.5 43.1259 1.5 55V63C1.5 63.8284 2.17157 64.5 3 64.5H49Z" fill="white" stroke="#93A761" stroke-width="3" stroke-linejoin="round"/>
</svg>
