<svg width="48" height="47" viewBox="0 0 48 47" fill="none" xmlns="http://www.w3.org/2000/svg">
<circle cx="23.8145" cy="23.5" r="23" fill="white" stroke="#D1D1D1"/>
<path d="M16.7433 27.9107C18.5433 27.9107 19.9113 26.9387 19.9113 24.1187V18.9467H18.8433V24.1547C18.8433 26.2667 17.9073 26.9267 16.7433 26.9267C15.5913 26.9267 14.6913 26.2667 14.6913 24.1547V18.9467H13.5873V24.1187C13.5873 26.9387 14.9553 27.9107 16.7433 27.9107ZM22.2718 27.7427H23.3878V24.0227H25.0198C26.8078 24.0227 28.0918 23.1827 28.0918 21.4187C28.0918 19.5947 26.8078 18.9467 25.0198 18.9467H22.2718V27.7427ZM23.3878 23.1227V19.8587H24.8638C26.2318 19.8587 26.9878 20.2667 26.9878 21.4187C26.9878 22.5587 26.2318 23.1227 24.8638 23.1227H23.3878ZM27.1078 27.7427H28.3558L25.6678 23.1467L24.8038 23.7227L27.1078 27.7427ZM29.8889 27.7427H34.8449V26.8067H31.0049V18.9467H29.8889V27.7427Z" fill="#A3A3A3"/>
</svg>
