<svg width="26" height="27" viewBox="0 0 26 27" fill="none" xmlns="http://www.w3.org/2000/svg">
<path d="M1 24.2944V25.2944H2H24H25V24.2944V21.5076C25 20.2188 24.355 19.1606 23.4806 18.3427C22.6135 17.5317 21.4602 16.8945 20.2529 16.4043C17.8403 15.4249 14.9624 14.934 13 14.934C11.0376 14.934 8.15969 15.4249 5.74713 16.4043C4.53977 16.8945 3.38652 17.5317 2.5194 18.3427C1.64499 19.1606 1 20.2188 1 21.5076V24.2944ZM13 14.1472C16.6035 14.1472 19.5 11.1927 19.5 7.5736C19.5 3.95447 16.6035 1 13 1C9.39647 1 6.5 3.95447 6.5 7.5736C6.5 11.1927 9.39647 14.1472 13 14.1472Z" stroke="#A3A3A3" stroke-width="2"/>
</svg>
