<svg width="26" height="27" viewBox="0 0 26 27" fill="none" xmlns="http://www.w3.org/2000/svg">
<path d="M1 24.3383V25.3383H2H24H25V24.3383V21.5515C25 20.2627 24.355 19.2045 23.4806 18.3867C22.6135 17.5757 21.4602 16.9384 20.2529 16.4483C17.8403 15.4689 14.9624 14.9779 13 14.9779C11.0376 14.9779 8.1597 15.4689 5.74713 16.4483C4.53977 16.9384 3.38652 17.5757 2.5194 18.3867C1.64499 19.2045 1 20.2627 1 21.5515V24.3383ZM13 14.1911C16.6035 14.1911 19.5 11.2367 19.5 7.61754C19.5 3.99842 16.6035 1.04395 13 1.04395C9.39647 1.04395 6.5 3.99842 6.5 7.61754C6.5 11.2367 9.39647 14.1911 13 14.1911Z" stroke="#93A761" stroke-width="2"/>
</svg>
