<svg width="28" height="29" viewBox="0 0 28 29" fill="none" xmlns="http://www.w3.org/2000/svg">
<path d="M1.5 25.3383V26.8383H3H25H26.5V25.3383V22.5515C26.5 21.0816 25.7615 19.9001 24.8221 19.0215C23.8937 18.1531 22.6792 17.4877 21.4409 16.985C19.4974 16.196 17.2646 15.7164 15.4143 15.5472C18.6147 14.8853 21 12.0212 21 8.61754C21 4.72856 17.8859 1.54395 14 1.54395C10.1141 1.54395 7 4.72856 7 8.61754C7 12.0212 9.38531 14.8853 12.5857 15.5472C10.7354 15.7164 8.50257 16.196 6.55906 16.985C5.32079 17.4877 4.10632 18.1531 3.17786 19.0215C2.23846 19.9001 1.5 21.0816 1.5 22.5515V25.3383Z" stroke="#A3A3A3" stroke-width="3"/>
</svg>
